<svg width="881" height="1736" xmlns="http://www.w3.org/2000/svg"><g transform="translate(-45 -36)" fill="none" fill-rule="evenodd"><g opacity=".25"><path stroke="#FFF" opacity=".6" d="M214.382 158.955l219.486 1.059L389.27 37.483z"/><path stroke="#FEDA3D" opacity=".6" d="M434.155 160.802l-91.35 160.895-128.228-162.205z"/><path stroke="#E5614B" d="M503.642 406.974L291.634 577.54l49.63-256.743zm0 0L291.634 577.54l184.63 54.257z"/><path stroke="#B235E9" d="M503.642 406.974l77.992 160.566-105.37 64.257zm0 0l80.992-149.434-105.37 64.257z"/><path stroke="#FEDA3D" opacity=".6" d="M341.86 320.58L188.916 503.326 45.636 301.319z"/><path stroke="#291C42" d="M341.938 320.794l161.864 86.121-69.934-246.901z"/><path stroke="#FEDA3D" opacity=".6" d="M45.924 302.107L342.33 321.87 213.907 159.736z"/><path stroke="#FEDA3D" opacity=".8" d="M189.232 503.21l103.217 74.033L341.86 320.58z"/><path stroke="#B235E9" d="M924.34 1507.573l-296.12-18.975 127.954 160.844z"/><path stroke="#D43864" d="M780.849 1305.967l-173.217-64.032 20.588 246.663z"/><path stroke="#7C2B42" d="M756.988 1649.754H546.301l35.799 121.472z"/><path stroke="#D43864" d="M628.22 1488.598l-132.073-86.287 50.065 246.853z"/><path stroke="#B235E9" d="M628.142 1488.384l152.89-182.484 143.412 201.96z"/><path stroke="#D438A9" d="M546.342 1649.216l82.693-160.915 127.758 160.915z"/><path stroke="#D43864" d="M496.439 1402.205l112.007-160.567 20.37 246.743z"/><path stroke="#FFF" d="M678.92 833.292L382.698 814.03l204.268 179.81z"/><path stroke="#D43864" d="M699.164 1081.541L586.456 993.45l21.741 248.33z"/><path stroke="#E5614B" opacity=".5" d="M475.326 631.4l-183.217-54.033 90.588 236.663z"/><path stroke="#FE9A3D" d="M586.913 993.858L290.69 974.596l142.976 202.118z"/><path stroke="#FFD729" d="M382.697 814.03l-172.376-76.176 80.369 236.742z"/><path stroke="#B235E9" d="M586.913 993.858l92.008-160.566 20.369 246.743zM382.697 814.03l93.248-182.856 202.976 202.118z"/><path stroke="#FE6B3D" d="M433.589 1176.7l152.665-181.796 21.717 246.907z"/><path stroke="#E5614B" d="M290.69 974.596l91.956-160.547 204.267 179.81z"/><path stroke="#FEDA3D" d="M210.916 737.637l82.008-160.566 90.369 236.742z"/></g><circle fill="#EBD667" cx="211" cy="738" r="3"/><circle fill="#EBD667" cx="190" cy="503" r="3"/><circle fill="#EBD667" cx="46.5" cy="301.5" r="1.5"/><circle fill="#EBD667" cx="215.5" cy="159.5" r="1.5"/><circle fill="#EBD667" cx="434.5" cy="161.5" r="3.5"/><circle fill="#EBD667" cx="341" cy="319" r="7"/><circle fill="#EBD667" cx="291" cy="974" r="6"/><circle fill="#E6644A" cx="383" cy="813" r="12"/><circle fill="#966AEC" cx="679" cy="833" r="3"/><circle fill="#D04E78" cx="293" cy="576" r="6"/><circle fill="#D04E78" cx="476.5" cy="630.5" r="2.5"/><circle fill="#E6644A" cx="503.5" cy="406.5" r="2.5"/><circle fill="#D04E78" cx="433.5" cy="1176.5" r="2.5"/><circle fill="#D0624E" cx="587" cy="994" r="5"/><circle fill="#D04E78" cx="497" cy="1403" r="6"/><circle fill="#D04E78" cx="608" cy="1241" r="3"/><circle fill="#E06FC7" cx="923" cy="1507" r="3"/><circle fill="#E06FC7" cx="629" cy="1488" r="3"/><circle fill="#866FE0" cx="781" cy="1306" r="6"/><circle fill="#E06FC7" cx="757" cy="1649" r="4"/><circle fill="#D04E78" cx="546.5" cy="1648.5" r="1.5"/></g></svg>