<svg width="842" height="793" xmlns="http://www.w3.org/2000/svg"><defs><style>@keyframes scale{0%{transform:scale(1)}50%{transform:scale(2)}}</style></defs><g id="Index" fill="none" fill-rule="evenodd" transform="translate(-158 -523)"><g id="Group" transform="translate(105 523)"><g id="Group-7" opacity=".27" transform="rotate(30 84.893 323.749)"><path id="Triangle-Copy-5" stroke="#FDC61B" d="M315.99 104.375l-69.832 82.296-70.24-82.336z"/><path id="Triangle-Copy-4" stroke="#FDC61B" d="M176.325 105.95l.634 162.045L38.562 305.98z"/><path id="Triangle-Copy-3" stroke="#FDC61B" transform="matrix(1 0 0 -1 0 104.697)" d="M146.235 81.814L176.96.05.157 104.647z"/><path id="Triangle-Copy-6" stroke="#E5614B" transform="matrix(1 0 0 -1 0 372.323)" d="M176.96 104.522l69.198 81.632-69.92 81.647z"/><path id="Triangle-Copy-6" stroke="#E5614B" transform="matrix(1 0 0 -1 0 612.926)" d="M176.46 345.991l138.877-79.056-.456 78.592z"/><path id="Triangle-Copy-5" stroke="#E5614B" transform="matrix(-1 0 0 1 1462.689 0)" d="M731.344 104.746l69.2 81.632-138.398 37.676z"/><path id="Triangle-Copy-3" stroke="#E5614B" transform="rotate(180 800.543 145.311)" d="M800.675 66.568l69.067 119.421-138.398 38.065z"/><path id="Triangle-Copy-6" stroke="#E5614B" transform="rotate(180 731.344 226.838)" d="M731.344 185.876l69.2 81.925-138.398-37.812z"/><path id="Triangle" stroke="#E5614B" transform="matrix(-1 0 0 1 907.508 0)" d="M453.754 66.568l69.199 157.486-138.398-75.593z"/><path id="Triangle-Copy-7" stroke="#E5614B" transform="matrix(-1 0 0 1 1184.584 0)" d="M592.184 104.44l69.962 44.208-139.707 38.023z"/><path id="Triangle-Copy-5" stroke="#E5614B" transform="matrix(-1 0 0 1 630.713 0)" d="M315.357 104.746l69.198 81.632-138.397 37.676z"/><path id="Triangle-Copy-2" stroke="#D43864" transform="matrix(-1 0 0 1 1045.906 0)" d="M522.953 148.493l69.199 157.486-138.398-37.797z"/><path id="Triangle-Copy-4" stroke="#E5614B" transform="matrix(-1 0 0 1 769.11 0)" d="M384.555 224.054l69.2 44.114-138.398 37.811z"/><path id="Triangle" stroke="#FEDA3D" transform="rotate(180 522.953 107.53)" d="M522.953 66.568l69.199 81.925-138.398-37.812z"/><path id="Triangle-Copy-3" stroke="#FDC61B" transform="rotate(180 384.555 145.311)" d="M384.555 66.568l69.2 119.69-138.398 37.796z"/><path id="Triangle-Copy" stroke="#E5614B" transform="rotate(180 453.754 227.236)" d="M453.754 148.493l69.199 81.893-138.398 75.593z"/><path id="Triangle-Copy-8" stroke="#E5614B" transform="rotate(180 592.479 208.46)" d="M592.01 149.12l70.136 118.68-139.334-37.048z"/><path id="Triangle-Copy-6" stroke="#E5614B" transform="rotate(180 315.357 226.838)" d="M315.357 185.876l69.198 81.925-138.397-37.812z"/></g><g id="Group-7" opacity=".27" transform="scale(-1 1) rotate(-1 22778.936 39815.496)"><path id="Triangle-Copy-5" stroke="#D43864" d="M136.206 128.135L70.158 214.67 36.348 90.08z"/><path id="Triangle-Copy-6" stroke="#D43864" transform="matrix(1 0 0 -1 0 490.825)" d="M.96 195.024l69.198 81.632-54.796 19.145z"/><path id="Triangle-Copy-5" stroke="#B235E9" transform="matrix(-1 0 0 1 905.965 0)" d="M489.77 295.985l-59.952-81.781-13.622 180.113z"/><path id="Triangle-Copy-5" stroke="#D43864" transform="matrix(-1 0 0 1 1012.295 0)" d="M476.147 258.43l60-44.226-13.621 180.113z"/><path id="Triangle-Copy-6" stroke="#D43864" transform="rotate(180 488.954 107.172)" d="M560.496 152.305L502.761.661l-85.349 213.023z"/><path id="Triangle" stroke="#D43864" transform="matrix(-1 0 0 1 555.508 0)" d="M277.754 94.568l69.199 157.486-138.398-75.593z"/><path id="Triangle-Copy-7" stroke="#D43864" transform="matrix(-1 0 0 1 823.106 0)" d="M405.937 62.74l70.21 113.72-129.188 38.037z"/><path id="Triangle-Copy-5" stroke="#D43864" transform="matrix(-1 0 0 1 278.713 0)" d="M142.4 127.837l66.155 86.541-138.397 37.676z"/><path id="Triangle-Copy-2" stroke="#B235E9" transform="matrix(-1 0 0 1 693.651 0)" d="M346.699 176.493l69.198 157.486-138.143-37.804z"/><path id="Triangle-Copy-4" stroke="#B235E9" transform="matrix(-1 0 0 1 417.11 0)" d="M208.555 252.054l69.2 44.114-138.398 37.811z"/><path id="Triangle" stroke="#E66549" transform="rotate(180 347.564 119.441)" d="M348.174 62.39l69.2 81.925-139.62 32.178z"/><path id="Triangle-Copy-3" stroke="#D13266" transform="rotate(180 207.09 173.311)" d="M205.626 94.568l72.128 123.741-141.327 33.745z"/><path id="Triangle-Copy" stroke="#D43864" transform="rotate(180 277.754 255.236)" d="M277.754 176.493l69.199 81.893-138.398 75.593z"/><path id="Triangle-Copy-8" stroke="#D43864" transform="rotate(180 411.448 236.38)" d="M406.939 176.475l69.208 119.81-129.399-37.518z"/><path id="Triangle-Copy-6" stroke="#D43864" transform="rotate(180 139.357 254.838)" d="M139.357 213.876l69.198 81.925-138.397-37.812z"/></g><circle id="Oval" fill="#E6644A" cx="394" cy="386" r="6"><animate attributeType="CSS" attributeName="r" dur="3s" values="6; 9; 6" keyTimes="0; 0.5; 1" repeatCount="indefinite"/></circle><circle id="Oval" fill="#E6644A" cx="552.5" cy="392.5" r="3.5"><animate attributeType="CSS" attributeName="r" dur="3s" values="3.5; 6; 3.5" begin="1s" keyTimes="0; 0.5; 1" repeatCount="indefinite"/></circle><circle id="Oval" fill="#D04E78" cx="413.5" cy="493.5" r="3.5"><animate attributeType="CSS" attributeName="r" dur="3s" values="3.5; 6; 3.5" keyTimes="0; 0.5; 1" repeatCount="indefinite"/></circle><circle id="Oval" fill="#D04E78" cx="553.5" cy="528.5" r="3.5"><animate attributeType="CSS" attributeName="r" dur="3s" values="3.5; 6; 3.5" begin="1s" keyTimes="0; 0.5; 1" repeatCount="indefinite"/></circle><circle id="Oval" fill="#D04E78" cx="653.5" cy="492.5" r="3.5"><animate attributeType="CSS" attributeName="r" dur="3s" values="3.5; 6; 3.5" keyTimes="0; 0.5; 1" repeatCount="indefinite"/></circle><circle id="Oval" fill="#D04E78" cx="617.5" cy="615.5" r="3.5"><animate attributeType="CSS" attributeName="r" dur="3s" values="3.5; 6; 3.5" begin="1s" keyTimes="0; 0.5; 1" repeatCount="indefinite"/></circle><circle id="Oval" fill="#D04E78" cx="672.5" cy="598.5" r="1.5"><animate attributeType="CSS" attributeName="r" dur="3s" values="7; 11; 7" keyTimes="0; 0.5; 1" repeatCount="indefinite"/></circle><circle fill="#D04E78" cx="755" cy="595" r="7" style="animation1:1s ease scale infinite;transform-origin:50% 50%"><animate attributeType="CSS" attributeName="r" dur="3s" begin="1s" values="7; 11; 7" keyTimes="0; 0.5; 1" repeatCount="indefinite"/></circle><circle id="Oval" fill="#E6644A" cx="754.5" cy="458.5" r="3.5"><animate attributeType="CSS" attributeName="r" dur="3s" values="3.5; 6; 3.5" keyTimes="0; 0.5; 1" repeatCount="indefinite"/></circle><circle id="Oval" fill="#E6644A" cx="893" cy="493" r="2"><animate attributeType="CSS" attributeName="r" dur="3s" values="2; 4; 2" begin="1s" keyTimes="0; 0.5; 1" repeatCount="indefinite"/></circle><circle id="Oval" fill="#D04E78" cx="273" cy="458" r="2"><animate attributeType="CSS" attributeName="r" dur="3s" values="2; 4; 2" keyTimes="0; 0.5; 1" repeatCount="indefinite"/></circle><circle id="Oval" fill="#E8685E" cx="312" cy="390" r="2"><animate attributeType="CSS" attributeName="r" dur="3s" values="2; 4; 2" begin="1s" keyTimes="0; 0.5; 1" repeatCount="indefinite"/></circle><circle id="Oval" fill="#E8685E" cx="293" cy="285" r="2"><animate attributeType="CSS" attributeName="r" dur="3s" values="2; 4; 2" keyTimes="0; 0.5; 1" repeatCount="indefinite"/></circle><circle id="Oval" fill="#E8685E" cx="193" cy="322" r="2"><animate attributeType="CSS" attributeName="r" dur="3s" values="1.5; 3; 1.5" begin="1s" keyTimes="0; 0.5; 1" repeatCount="indefinite"/></circle><circle id="Oval" fill="#E8685E" cx="273.5" cy="179.5" r="1.5"><animate attributeType="CSS" attributeName="r" dur="3s" values="1.5; 3; 1.5" keyTimes="0; 0.5; 1" repeatCount="indefinite"/></circle><circle id="Oval" fill="#F2DE73" cx="287" cy="94" r="4"><animate attributeType="CSS" attributeName="r" dur="3s" values="4; 3; 4" begin="1s" keyTimes="0; 0.5; 1" repeatCount="indefinite"/></circle><circle id="Oval" fill="#D04E78" cx="341.5" cy="574.5" r="1.5"><animate attributeType="CSS" attributeName="r" dur="3s" values="1.5; 3; 1.5" keyTimes="0; 0.5; 1" repeatCount="indefinite"/></circle><circle id="Oval" fill="#9A59E0" cx="408" cy="733" r="3"><animate attributeType="CSS" attributeName="r" dur="3s" values="3; 5; 3" begin="1s" keyTimes="0; 0.5; 1" repeatCount="indefinite"/></circle><circle id="Oval" fill="#9A59E0" cx="195" cy="790" r="3"><animate attributeType="CSS" attributeName="r" dur="3s" values="3; 5; 3" keyTimes="0; 0.5; 1" repeatCount="indefinite"/></circle><circle id="Oval" fill="#9A59E0" cx="270.5" cy="692.5" r="1.5"><animate attributeType="CSS" attributeName="r" dur="3s" values="1.5; 3; 1.5" begin="1s" keyTimes="0; 0.5; 1" repeatCount="indefinite"/></circle><circle id="Oval" fill="#D550E5" cx="212.5" cy="608.5" r="2.5"><animate attributeType="CSS" attributeName="r" dur="3s" values="2.5; 4; 2.5" begin="1s" keyTimes="0; 0.5; 1" repeatCount="indefinite"/></circle><circle id="Oval" fill="#E6CD49" cx="393" cy="249" r="3"><animate attributeType="CSS" attributeName="r" dur="3s" values="3; 5; 3" keyTimes="0; 0.5; 1" repeatCount="indefinite"/></circle><circle id="Oval" fill="#EEE2A2" cx="533" cy="285" r="2"><animate attributeType="CSS" attributeName="r" dur="3s" values="2; 3; 2" begin="1s" keyTimes="0; 0.5; 1" repeatCount="indefinite"/></circle><circle id="Oval" fill="#D550E5" cx="479.5" cy="651.5" r="1.5"><animate attributeType="CSS" attributeName="r" dur="3s" values="1.5; 3; 1.5" keyTimes="0; 0.5; 1" repeatCount="indefinite"/></circle></g></g></svg>