<svg xmlns="http://www.w3.org/2000/svg" xmlns:xlink="http://www.w3.org/1999/xlink" viewBox="0 0 30.41 37.93"><defs><style>.cls-1{fill:none;}.cls-2{clip-path:url(#clip-path);}.cls-3{clip-path:url(#clip-path-2);}.cls-4{fill:#fff;}</style><clipPath id="clip-path" transform="translate(-1081 -53.07)"><path class="cls-1" d="M1101.75,69.27c-.66,2.74-4.72,1.35-6,1l1.16-4.85c1.32.33,5.56,1,4.87,3.83h0Zm-.73,7.79c-.72,3-5.6,1.38-7.18,1l1.28-5.33C1096.7,73.13,1101.78,73.94,1101,77.06Zm5.33-7.75c.43-2.92-1.73-4.5-4.68-5.57l1-4-2.33-.61-.93,3.87-1.89-.46.93-3.91-2.34-.61-1,4-1.49-.37-3.22-.83-.62,2.58s1.73.41,1.69.43a1.29,1.29,0,0,1,1.09,1.41L1090,76.16a.87.87,0,0,1-1.09.58s-1.7-.44-1.7-.44L1086,79.07l3,.78,1.65.44-1,4,2.34.6,1-4c.64.18,1.25.35,1.86.5l-.9,4,2.34.61,1-4c4,.79,7,.47,8.22-3.26,1-3-.05-4.74-2.16-5.87a3.81,3.81,0,0,0,3-3.55h0Z"/></clipPath><clipPath id="clip-path-2" transform="translate(-1081 -53.07)"><rect class="cls-1" width="1440" height="7850"/></clipPath></defs><title>Asset 1</title><g id="Layer_2" data-name="Layer 2"><g id="Layer_1-2" data-name="Layer 1"><g class="cls-2"><g class="cls-3"><rect class="cls-4" width="30.41" height="37.93"/></g></g></g></g></svg>