<?xml version="1.0" encoding="UTF-8" standalone="no"?>
<svg width="1357px" height="772px" viewBox="0 0 1357 772" version="1.1" xmlns="http://www.w3.org/2000/svg" xmlns:xlink="http://www.w3.org/1999/xlink">
    <!-- Generator: Sketch 48.2 (47327) - http://www.bohemiancoding.com/sketch -->
    <title>Group</title>
    <desc>Created with Sketch.</desc>
    <defs></defs>
    <g id="404" stroke="none" stroke-width="1" fill="none" fill-rule="evenodd" transform="translate(-49.000000, -9.000000)">
        <g id="Group" transform="translate(49.000000, 9.000000)">
            <circle id="Oval" fill="#EBD667" cx="1062" cy="405" r="3"></circle>
            <circle id="Oval" fill="#E6644A" cx="273" cy="439" r="9"></circle>
            <circle id="Oval" fill="#D04E78" cx="302" cy="598" r="5"></circle>
            <circle id="Oval" fill="#D04E78" cx="93" cy="546" r="3"></circle>
            <circle id="Oval" fill="#E8685E" cx="151" cy="445" r="3"></circle>
            <circle id="Oval" fill="#E8685E" cx="123" cy="289" r="3"></circle>
            <circle id="Oval" fill="#E8685E" cx="94" cy="133" r="2"></circle>
            <circle id="Oval" fill="#F2DE73" cx="114" cy="6" r="6"></circle>
            <circle id="Oval" fill="#D04E78" cx="195" cy="718" r="2"></circle>
            <circle id="Oval" fill="#D550E5" cx="3.5" cy="768.5" r="3.5"></circle>
            <circle id="Oval" fill="#E6CD49" cx="271.5" cy="235.5" r="4.5"></circle>
            <circle id="Oval" fill="#EEE2A2" cx="479" cy="289" r="3"></circle>
            <circle id="Oval" fill="#E6644A" transform="translate(711.000000, 61.000000) rotate(90.000000) translate(-711.000000, -61.000000) " cx="711" cy="61" r="9"></circle>
            <circle id="Oval" fill="#D04E78" transform="translate(552.000000, 90.000000) rotate(90.000000) translate(-552.000000, -90.000000) " cx="552" cy="90" r="5"></circle>
            <circle id="Oval" fill="#9A59E0" transform="translate(196.500000, 81.500000) rotate(90.000000) translate(-196.500000, -81.500000) " cx="196.5" cy="81.5" r="4.5"></circle>
            <circle id="Oval" fill="#E6CD49" transform="translate(914.500000, 59.500000) rotate(90.000000) translate(-914.500000, -59.500000) " cx="914.5" cy="59.5" r="4.5"></circle>
            <circle id="Oval" fill="#EEE2A2" transform="translate(861.000000, 267.000000) rotate(90.000000) translate(-861.000000, -267.000000) " cx="861" cy="267" r="3"></circle>
            <circle id="Oval" fill="#D550E5" transform="translate(318.000000, 187.000000) rotate(90.000000) translate(-318.000000, -187.000000) " cx="318" cy="187" r="2"></circle>
            <circle id="Oval" fill="#D04E78" transform="translate(705.000000, 531.000000) scale(1, -1) translate(-705.000000, -531.000000) " cx="705" cy="531" r="5"></circle>
            <circle id="Oval" fill="#D04E78" transform="translate(496.000000, 583.000000) scale(1, -1) translate(-496.000000, -583.000000) " cx="496" cy="583" r="3"></circle>
            <circle id="Oval" fill="#E8685E" transform="translate(554.000000, 684.000000) scale(1, -1) translate(-554.000000, -684.000000) " cx="554" cy="684" r="3"></circle>
            <circle id="Oval" fill="#D04E78" transform="translate(598.000000, 411.000000) scale(1, -1) translate(-598.000000, -411.000000) " cx="598" cy="411" r="2"></circle>
            <circle id="Oval" fill="#9A59E0" transform="translate(696.500000, 175.500000) scale(1, -1) translate(-696.500000, -175.500000) " cx="696.5" cy="175.5" r="4.5"></circle>
            <circle id="Oval" fill="#9A59E0" transform="translate(493.000000, 236.000000) scale(1, -1) translate(-493.000000, -236.000000) " cx="493" cy="236" r="2"></circle>
            <circle id="Oval" fill="#D550E5" transform="translate(406.500000, 360.500000) scale(1, -1) translate(-406.500000, -360.500000) " cx="406.5" cy="360.5" r="3.5"></circle>
            <circle id="Oval" fill="#D550E5" transform="translate(802.000000, 297.000000) scale(1, -1) translate(-802.000000, -297.000000) " cx="802" cy="297" r="2"></circle>
            <circle id="Oval" fill="#EBD667" cx="1142" cy="641" r="6"></circle>
            <circle id="Oval" fill="#E6644A" cx="1234" cy="480" r="12"></circle>
            <circle id="Oval" fill="#D04E78" cx="1144" cy="243" r="6"></circle>
            <circle id="Oval" fill="#D04E78" cx="1327.5" cy="297.5" r="2.5"></circle>
            <circle id="Oval" fill="#E6644A" cx="1354.5" cy="73.5" r="2.5"></circle>
            <circle id="Oval" fill="#EBD667" cx="1040.5" cy="168.5" r="2.5"></circle>
            <circle id="Oval" fill="#EBD667" transform="translate(748.000000, 730.000000) scale(1, -1) translate(-748.000000, -730.000000) " cx="748" cy="730" r="3"></circle>
            <circle id="Oval" fill="#EBD667" transform="translate(828.000000, 494.000000) scale(1, -1) translate(-828.000000, -494.000000) " cx="828" cy="494" r="6"></circle>
            <circle id="Oval" fill="#D04E78" transform="translate(970.500000, 291.500000) scale(1, -1) translate(-970.500000, -291.500000) " cx="970.5" cy="291.5" r="2.5"></circle>
            <circle id="Oval" fill="#D04E78" transform="translate(1034.000000, 65.000000) scale(1, -1) translate(-1034.000000, -65.000000) " cx="1034" cy="65" r="6"></circle>
        </g>
    </g>
</svg>