<?xml version="1.0" encoding="UTF-8" standalone="no"?>
<svg width="842px" height="793px" viewBox="0 0 842 793" version="1.1" xmlns="http://www.w3.org/2000/svg" xmlns:xlink="http://www.w3.org/1999/xlink">
    <!-- Generator: Sketch 48.2 (47327) - http://www.bohemiancoding.com/sketch -->
    <title>Group</title>
    <desc>Created with Sketch.</desc>
    <defs></defs>
    <g id="Index" stroke="none" stroke-width="1" fill="none" fill-rule="evenodd" transform="translate(-158.000000, -523.000000)">
        <g id="Group" transform="translate(105.000000, 523.000000)">
            <g id="Group-7" opacity="0.270000011" transform="translate(463.468911, 368.250000) rotate(-330.000000) translate(-463.468911, -368.250000) translate(28.468911, 195.250000)">
                <polygon id="Triangle-Copy-5" stroke="#FDC61B" points="315.989419 104.375023 246.157964 186.671103 175.918843 104.334736"></polygon>
                <polygon id="Triangle-Copy-4" stroke="#FDC61B" points="176.324633 105.950629 176.959248 267.995403 38.5618162 305.979234"></polygon>
                <polygon id="Triangle-Copy-3" stroke="#FDC61B" transform="translate(88.558344, 52.348332) scale(1, -1) translate(-88.558344, -52.348332) " points="146.235058 81.8143505 176.959248 0.0492546016 0.157440227 104.647409"></polygon>
                <polygon id="Triangle-Copy-6" stroke="#E5614B" transform="translate(211.198422, 186.161293) scale(1, -1) translate(-211.198422, -186.161293) " points="176.959248 104.521954 246.157964 186.153833 176.23888 267.800632"></polygon>
                <polygon id="Triangle-Copy-6" stroke="#E5614B" transform="translate(245.898352, 306.462877) scale(1, -1) translate(-245.898352, -306.462877) " points="176.459248 345.991148 315.337456 266.934607 314.880654 345.526909"></polygon>
                <polygon id="Triangle-Copy-5" stroke="#E5614B" transform="translate(731.344362, 164.400252) scale(-1, 1) translate(-731.344362, -164.400252) " points="731.344362 104.746187 800.543078 186.378066 662.145646 224.054318"></polygon>
                <polygon id="Triangle-Copy-3" stroke="#E5614B" transform="translate(800.543078, 145.310951) scale(-1, -1) translate(-800.543078, -145.310951) " points="800.674796 66.567585 869.741794 185.989282 731.344362 224.054318"></polygon>
                <polygon id="Triangle-Copy-6" stroke="#E5614B" transform="translate(731.344362, 226.838174) scale(-1, -1) translate(-731.344362, -226.838174) " points="731.344362 185.875716 800.543078 267.800632 662.145646 229.989132"></polygon>
                <polygon id="Triangle" stroke="#E5614B" transform="translate(453.754111, 145.310951) scale(-1, 1) translate(-453.754111, -145.310951) " points="453.754111 66.567585 522.952827 224.054318 384.555395 148.460686"></polygon>
                <polygon id="Triangle-Copy-7" stroke="#E5614B" transform="translate(592.292184, 145.555793) scale(-1, 1) translate(-592.292184, -145.555793) " points="592.184373 104.440482 662.145646 148.64805 522.438721 186.671103"></polygon>
                <polygon id="Triangle-Copy-5" stroke="#E5614B" transform="translate(315.356680, 164.400252) scale(-1, 1) translate(-315.356680, -164.400252) " points="315.35668 104.746187 384.555395 186.378066 246.157964 224.054318"></polygon>
                <polygon id="Triangle-Copy-2" stroke="#D43864" transform="translate(522.952827, 227.235868) scale(-1, 1) translate(-522.952827, -227.235868) " points="522.952827 148.492501 592.151543 305.979234 453.754111 268.182418"></polygon>
                <polygon id="Triangle-Copy-4" stroke="#E5614B" transform="translate(384.555395, 265.016776) scale(-1, 1) translate(-384.555395, -265.016776) " points="384.555395 224.054318 453.754111 268.167734 315.35668 305.979234"></polygon>
                <polygon id="Triangle" stroke="#FEDA3D" transform="translate(522.952827, 107.530043) scale(-1, -1) translate(-522.952827, -107.530043) " points="522.952827 66.567585 592.151543 148.492501 453.754111 110.681002"></polygon>
                <polygon id="Triangle-Copy-3" stroke="#FDC61B" transform="translate(384.555395, 145.310951) scale(-1, -1) translate(-384.555395, -145.310951) " points="384.555395 66.567585 453.754111 186.257502 315.35668 224.054318"></polygon>
                <polygon id="Triangle-Copy" stroke="#E5614B" transform="translate(453.754111, 227.235868) scale(-1, -1) translate(-453.754111, -227.235868) " points="453.754111 148.492501 522.952827 230.385602 384.555395 305.979234"></polygon>
                <polygon id="Triangle-Copy-8" stroke="#E5614B" transform="translate(592.478770, 208.460504) scale(-1, -1) translate(-592.478770, -208.460504) " points="592.01061 149.120376 662.145646 267.800632 522.811895 230.752255"></polygon>
                <polygon id="Triangle-Copy-6" stroke="#E5614B" transform="translate(315.356680, 226.838174) scale(-1, -1) translate(-315.356680, -226.838174) " points="315.35668 185.875716 384.555395 267.800632 246.157964 229.989132"></polygon>
            </g>
            <g id="Group-7" opacity="0.270000011" transform="translate(407.502741, 596.185857) scale(-1, 1) rotate(-361.000000) translate(-407.502741, -596.185857) translate(127.002741, 398.685857)">
                <polygon id="Triangle-Copy-5" stroke="#D43864" points="136.205749 128.134899 70.1579637 214.671103 36.3474097 90.0790076"></polygon>
                <polygon id="Triangle-Copy-5" stroke="#B235E9" transform="translate(452.982352, 304.260162) scale(-1, 1) translate(-452.982352, -304.260162) " points="489.769202 295.985278 429.817535 214.203542 416.195502 394.316782"></polygon>
                <polygon id="Triangle-Copy-5" stroke="#D43864" transform="translate(506.147559, 304.260162) scale(-1, 1) translate(-506.147559, -304.260162) " points="476.147169 258.430306 536.147948 214.203542 522.525915 394.316782"></polygon>
                <polygon id="Triangle-Copy-6" stroke="#D43864" transform="translate(488.954020, 107.172462) scale(-1, -1) translate(-488.954020, -107.172462) " points="560.496041 152.305477 502.760717 0.661184295 417.411999 213.683739"></polygon>
                <polygon id="Triangle" stroke="#D43864" transform="translate(277.754111, 173.310951) scale(-1, 1) translate(-277.754111, -173.310951) " points="277.754111 94.567585 346.952827 252.054318 208.555395 176.460686"></polygon>
                <polygon id="Triangle-Copy-7" stroke="#D43864" transform="translate(411.553015, 138.617987) scale(-1, 1) translate(-411.553015, -138.617987) " points="405.937279 62.7393958 476.147169 176.459682 346.958861 214.496579"></polygon>
                <polygon id="Triangle-Copy-5" stroke="#D43864" transform="translate(139.356680, 189.945862) scale(-1, 1) translate(-139.356680, -189.945862) " points="142.399535 127.837407 208.555395 214.378066 70.1579637 252.054318"></polygon>
                <polygon id="Triangle-Copy-2" stroke="#B235E9" transform="translate(346.825683, 255.235868) scale(-1, 1) translate(-346.825683, -255.235868) " points="346.698538 176.492501 415.897254 333.979234 277.754111 296.174915"></polygon>
                <polygon id="Triangle-Copy-4" stroke="#B235E9" transform="translate(208.555395, 293.016776) scale(-1, 1) translate(-208.555395, -293.016776) " points="208.555395 252.054318 277.754111 296.167734 139.35668 333.979234"></polygon>
                <polygon id="Triangle" stroke="#E66549" transform="translate(347.563661, 119.441124) scale(-1, -1) translate(-347.563661, -119.441124) " points="348.174496 62.3897462 417.373211 144.314663 277.754111 176.492501"></polygon>
                <polygon id="Triangle-Copy-3" stroke="#D13266" transform="translate(207.090529, 173.310951) scale(-1, -1) translate(-207.090529, -173.310951) " points="205.625662 94.567585 277.754111 218.30925 136.426946 252.054318"></polygon>
                <polygon id="Triangle-Copy" stroke="#D43864" transform="translate(277.754111, 255.235868) scale(-1, -1) translate(-277.754111, -255.235868) " points="277.754111 176.492501 346.952827 258.385602 208.555395 333.979234"></polygon>
                <polygon id="Triangle-Copy-8" stroke="#D43864" transform="translate(411.447768, 236.380416) scale(-1, -1) translate(-411.447768, -236.380416) " points="406.938577 176.475049 476.147169 296.285782 346.748367 258.766602"></polygon>
                <polygon id="Triangle-Copy-6" stroke="#D43864" transform="translate(139.356680, 254.838174) scale(-1, -1) translate(-139.356680, -254.838174) " points="139.35668 213.875716 208.555395 295.800632 70.1579637 257.989132"></polygon>
            </g>
            <circle id="Oval" fill="#E6644A" cx="394" cy="386" r="6">
                 <animate attributeType="CSS"
                        attributeName="r"
                        dur="5s"
                        values="6; 9; 6"
                        keyTimes="0; 0.5; 1"
                        repeatCount="indefinite" />
            </circle>
            <circle id="Oval" fill="#E6644A" cx="552.5" cy="392.5" r="3.5">
                <animate attributeType="CSS"
                        attributeName="r"
                        dur="3s"
                        values="3.5; 6; 3.5"
                        begin="1.3s"
                        keyTimes="0; 0.5; 1"
                        repeatCount="indefinite" />
            </circle>
            <circle id="Oval" fill="#D04E78" cx="413.5" cy="493.5" r="3.5">
                <animate attributeType="CSS"
                        attributeName="r"
                        dur="4s"
                        values="3.5; 6; 3.5"
                        keyTimes="0; 0.5; 1"
                        repeatCount="indefinite" />
            </circle>
            <circle id="Oval" fill="#D04E78" cx="553.5" cy="528.5" r="3.5">
                <animate attributeType="CSS"
                        attributeName="r"
                        dur="3.5s"
                        values="3.5; 6; 3.5"
                        begin="2s"
                        keyTimes="0; 0.5; 1"
                        repeatCount="indefinite" />
            </circle>
            <circle id="Oval" fill="#D04E78" cx="653.5" cy="492.5" r="3.5">
                <animate attributeType="CSS"
                        attributeName="r"
                        dur="3s"
                        values="3.5; 6; 3.5"
                        keyTimes="0; 0.5; 1"
                        repeatCount="indefinite" />
            </circle>
            <circle id="Oval" fill="#D04E78" cx="617.5" cy="615.5" r="3.5">
                <animate attributeType="CSS"
                        attributeName="r"
                        dur="4.5s"
                        values="3.5; 6; 3.5"
                        begin="0.7s"
                        keyTimes="0; 0.5; 1"
                        repeatCount="indefinite" />
            </circle>
            <circle id="Oval" fill="#D04E78" cx="672.5" cy="598.5" r="1.5">
                <animate attributeType="CSS"
                        attributeName="r"
                        dur="3s"
                        values="7; 11; 7"
                        keyTimes="0; 0.5; 1"
                        repeatCount="indefinite" />
            </circle>
            <circle id="Oval10" fill="#D04E78" cx="755" cy="595" r="7">
                <animate attributeType="CSS"
                        attributeName="r"
                        dur="3.5s"
                        begin="1s"
                        values="7; 11; 7"
                        keyTimes="0; 0.5; 1"
                        repeatCount="indefinite" />
            </circle>
            <circle id="Oval" fill="#E6644A" cx="754.5" cy="458.5" r="3.5">
                <animate attributeType="CSS"
                        attributeName="r"
                        dur="4s"
                        values="3.5; 6; 3.5"
                        keyTimes="0; 0.5; 1"
                        repeatCount="indefinite" />
            </circle>
            <circle id="Oval" fill="#E6644A" cx="893" cy="493" r="2"></circle>
            <circle id="Oval" fill="#D04E78" cx="273" cy="458" r="2">
                <animate attributeType="CSS"
                        attributeName="r"
                        dur="4s"
                        values="2; 4; 2"
                        keyTimes="0; 0.5; 1"
                        repeatCount="indefinite" />
            </circle>
            <circle id="Oval" fill="#E8685E" cx="312" cy="390" r="2">
                <animate attributeType="CSS"
                        attributeName="r"
                        dur="4s"
                        values="2; 4; 2"
                        begin="1.3s"
                        keyTimes="0; 0.5; 1"
                        repeatCount="indefinite" />
            </circle>
            <circle id="Oval" fill="#E8685E" cx="293" cy="285" r="2">
                <animate attributeType="CSS"
                        attributeName="r"
                        dur="3s"
                        values="2; 4; 2"
                        keyTimes="0; 0.5; 1"
                        repeatCount="indefinite" />
            </circle>
            <circle id="Oval" fill="#E8685E" cx="193" cy="322" r="2">
                <animate attributeType="CSS"
                        attributeName="r"
                        dur="5s"
                        values="1.5; 3; 1.5"
                        begin="0.6s"
                        keyTimes="0; 0.5; 1"
                        repeatCount="indefinite" />
            </circle>
            <circle id="Oval" fill="#E8685E" cx="273.5" cy="179.5" r="1.5">
                <animate attributeType="CSS"
                        attributeName="r"
                        dur="4.5s"
                        values="1.5; 3; 1.5"
                        keyTimes="0; 0.5; 1"
                        repeatCount="indefinite" />
            </circle>
            <circle id="Oval" fill="#F2DE73" cx="287" cy="94" r="4">
                <animate attributeType="CSS"
                        attributeName="r"
                        dur="3.5s"
                        values="4; 3; 4"
                        begin="0.8s"
                        keyTimes="0; 0.5; 1"
                        repeatCount="indefinite" />
            </circle>
            <circle id="Oval" fill="#D04E78" cx="341.5" cy="574.5" r="1.5">
                <animate attributeType="CSS"
                        attributeName="r"
                        dur="3s"
                        values="1.5; 3; 1.5"
                        keyTimes="0; 0.5; 1"
                        repeatCount="indefinite" />
            </circle>
            <circle id="Oval" fill="#9A59E0" cx="408" cy="733" r="3">
                <animate attributeType="CSS"
                        attributeName="r"
                        dur="4s"
                        values="3; 5; 3"
                        begin="1s"
                        keyTimes="0; 0.5; 1"
                        repeatCount="indefinite" />
            </circle>
            <circle id="Oval" fill="#9A59E0" cx="195" cy="790" r="3">
                <animate attributeType="CSS"
                        attributeName="r"
                        dur="5s"
                        values="3; 5; 3"
                        keyTimes="0; 0.5; 1"
                        repeatCount="indefinite" />
            </circle>
            <circle id="Oval" fill="#9A59E0" cx="270.5" cy="692.5" r="1.5">
                <animate attributeType="CSS"
                        attributeName="r"
                        dur="3.5s"
                        values="1.5; 3; 1.5"
                        begin="1.1s"
                        keyTimes="0; 0.5; 1"
                        repeatCount="indefinite" />
            </circle>
            <circle id="Oval" fill="#D550E5" cx="212.5" cy="608.5" r="2.5">
                <animate attributeType="CSS"
                        attributeName="r"
                        dur="3s"
                        values="2.5; 4; 2.5"
                        begin="1.2s"
                        keyTimes="0; 0.5; 1"
                        repeatCount="indefinite" />
            </circle>
            <circle id="Oval" fill="#E6CD49" cx="393" cy="249" r="3">
                <animate attributeType="CSS"
                        attributeName="r"
                        dur="3.5s"
                        values="3; 5; 3"
                        keyTimes="0; 0.5; 1"
                        repeatCount="indefinite" />
            </circle>
            <circle id="Oval" fill="#EEE2A2" cx="533" cy="285" r="2">
                <animate attributeType="CSS"
                        attributeName="r"
                        dur="3s"
                        values="2; 3; 2"
                        begin="1.2s"
                        keyTimes="0; 0.5; 1"
                        repeatCount="indefinite" />
            </circle>
            <circle id="Oval" fill="#D550E5" cx="479.5" cy="651.5" r="1.5">
                <animate attributeType="CSS"
                        attributeName="r"
                        dur="4s"
                        values="1.5; 3; 1.5"
                        keyTimes="0; 0.5; 1"
                        repeatCount="indefinite" />
            </circle>
        </g>
    </g>
</svg>
